<svg fill="none" height="32" viewBox="0 0 512 512" width="32" xmlns="http://www.w3.org/2000/svg" xmlns:xlink="http://www.w3.org/1999/xlink"><clipPath id="a"><path d="m0 0h512v512h-512z"/></clipPath><g clip-path="url(#a)"><path d="m512 256c0 141.385-114.615 256-256 256s-256-114.615-256-256 114.615-256 256-256 256 114.615 256 256z" fill="#19c0fc"/><path d="m389.586 146.552-46.5 20.161c-2.726 1.44-4.489 4.32-4.489 7.521v163.692c0 3.041 1.763 6.081 4.489 7.521l46.5 20.001c2.886 1.6 6.414-.48 6.414-3.68v-211.536c0-3.2-3.528-5.281-6.414-3.68zm-220.955 20.161-45.217-20.161c-2.886-1.601-6.414.48-6.414 3.68v211.376c0 3.36 3.688 5.441 6.574 3.68l45.538-23.521c2.566-1.601 4.009-4.321 4.009-7.201v-160.332c0-3.04-1.764-5.921-4.49-7.521zm139.66 56.164-48.263-27.682c-2.566-1.44-5.933-1.44-8.499 0l-48.424 27.682c-2.726 1.441-4.329 4.321-4.329 7.361v55.524c0 3.041 1.603 5.921 4.329 7.361l48.424 27.682c2.566 1.44 5.933 1.44 8.499 0l48.263-27.682c2.566-1.44 4.33-4.32 4.33-7.361v-55.524c0-3.04-1.604-5.92-4.33-7.361z" fill="#fff"/></g></svg>
